<?xml version="1.0" encoding="utf-8"?>
<!-- Generator: Adobe Illustrator 16.0.4, SVG Export Plug-In . SVG Version: 6.00 Build 0)  -->
<!DOCTYPE svg PUBLIC "-//W3C//DTD SVG 1.1//EN" "http://www.w3.org/Graphics/SVG/1.1/DTD/svg11.dtd">
<svg version="1.1" id="Layer_1" xmlns="http://www.w3.org/2000/svg" xmlns:xlink="http://www.w3.org/1999/xlink" x="0px" y="0px"
	 width="436.916px" height="125.854px" viewBox="0 0 436.916 125.854" enable-background="new 0 0 436.916 125.854"
	 xml:space="preserve">
<g>
	<g>
		<path fill="#FFFFFF" d="M157.001,32.387c-8.587,0-14.817,6.155-14.817,14.644v32.691c0,8.488,6.229,14.647,14.817,14.647
			c8.6,0,13.945-5.406,13.945-14.116v-6.807c0-1.318-1.069-2.388-2.391-2.388h-4.824c-1.318,0-2.388,1.07-2.388,2.388v6.98
			c0,2.647-1.52,4.167-4.166,4.167c-2.644,0-4.165-1.486-4.165-4.082V46.239c0-2.593,1.521-4.079,4.165-4.079
			c2.646,0,4.166,1.516,4.166,4.165v6.896c0,1.316,1.07,2.385,2.388,2.385h4.824c1.321,0,2.391-1.069,2.391-2.385v-6.72
			C170.947,37.798,165.602,32.387,157.001,32.387z"/>
		<path fill="#FFFFFF" d="M203.187,83.543h-11.061V35.832c0-1.323-1.065-2.393-2.388-2.393h-5.875c-1.32,0-2.388,1.07-2.388,2.393
			v55.094c0,1.316,1.067,2.386,2.388,2.386h19.324c1.319,0,2.388-1.07,2.388-2.386v-4.997
			C205.575,84.609,204.506,83.543,203.187,83.543z"/>
		<path fill="#FFFFFF" d="M234.02,35.436c-0.192-1.15-1.185-1.997-2.357-1.997h-7.368c-1.168,0-2.166,0.847-2.357,1.997
			l-9.18,55.093c-0.117,0.695,0.079,1.402,0.532,1.938c0.454,0.537,1.12,0.844,1.821,0.844h5.02c1.179,0,2.183-0.855,2.363-2.023
			l1.445-9.4h7.364l1.22,9.347c0.157,1.186,1.169,2.076,2.37,2.076h5.955c0.007,0,0.021,0,0.025,0c1.321,0,2.395-1.07,2.395-2.386
			c0-0.264-0.043-0.52-0.125-0.758L234.02,35.436z M225.28,72.727l2.6-18.14l2.202,18.14H225.28z"/>
		<path fill="#FFFFFF" d="M267.313,33.439h-12.518c-1.319,0-2.391,1.07-2.391,2.393v55.094c0,1.316,1.072,2.386,2.391,2.386h12.518
			c8.915,0,14.028-5.208,14.028-14.29V48.085C281.342,38.914,276.096,33.439,267.313,33.439z M263.062,43.126h3.635
			c2.072,0,3.989,0.59,3.989,4.871v30.85c0,3.366-1.228,4.869-3.989,4.869h-3.635V43.126z"/>
		<path fill="#FFFFFF" d="M332.888,33.439h-5.074c-1.209,0-2.227,0.904-2.374,2.101l-3.909,32.221l-4.059-32.232
			c-0.15-1.192-1.166-2.089-2.373-2.089h-4.192c-1.191,0-2.199,0.879-2.366,2.056l-4.577,32.322l-3.474-32.246
			c-0.129-1.21-1.153-2.133-2.375-2.133h-5.694c-0.695,0-1.353,0.302-1.806,0.829c-0.456,0.522-0.66,1.22-0.558,1.907l8.02,55.092
			c0.171,1.172,1.177,2.044,2.366,2.044h5.21c1.181,0,2.184-0.855,2.366-2.023l4.437-28.829l3.999,28.797
			c0.165,1.176,1.175,2.056,2.368,2.056h5.295c1.177,0,2.176-0.852,2.362-2.013l8.766-55.094c0.11-0.689-0.086-1.396-0.539-1.925
			C334.251,33.749,333.585,33.439,332.888,33.439z"/>
		<path fill="#FFFFFF" d="M366.582,33.439h-19.937c-1.318,0-2.391,1.07-2.391,2.393v55.094c0,1.316,1.072,2.386,2.391,2.386h19.937
			c1.322,0,2.39-1.07,2.39-2.386v-5.088c0-1.316-1.067-2.388-2.39-2.388h-11.673V66.948h7.366c1.323,0,2.393-1.07,2.393-2.391
			v-4.291c0-1.322-1.069-2.39-2.393-2.39h-7.366V43.041h11.673c1.322,0,2.39-1.07,2.39-2.393v-4.817
			C368.972,34.509,367.904,33.439,366.582,33.439z"/>
		<path fill="#FFFFFF" d="M400.951,83.543H389.89V35.832c0-1.323-1.07-2.393-2.388-2.393h-5.873c-1.319,0-2.387,1.07-2.387,2.393
			v55.094c0,1.316,1.068,2.386,2.387,2.386h19.322c1.318,0,2.389-1.07,2.389-2.386v-4.997
			C403.339,84.609,402.269,83.543,400.951,83.543z"/>
		<path fill="#FFFFFF" d="M434.527,83.543h-11.056V35.832c0-1.323-1.076-2.393-2.391-2.393h-5.875c-1.32,0-2.393,1.07-2.393,2.393
			v55.094c0,1.316,1.073,2.386,2.393,2.386h19.322c1.319,0,2.389-1.07,2.389-2.386v-4.997
			C436.916,84.609,435.847,83.543,434.527,83.543z"/>
	</g>
</g>
<g>
	<path fill="#FFFFFF" d="M56.464,20.27c-0.101-0.74,0.121-1.386,0.619-1.841c0.713-0.653,1.783-0.705,2.548-0.532
		c0.892,0.2,1.542,0.698,1.781,1.367l0.053,0.206l0.162,0.986c0.042-1.29,0.077-2.272,0.092-2.6
		c0.069-1.649,1.211-2.386,2.311-2.386c1.136,0,2.402,0.767,2.474,1.911c0.04,0.605,0.137,6.51,0.188,9.609l0.183,1.649
		c0.399,0.676,0.561,1.438,0.421,2.159c8.945-0.252,17.825-1.203,26.417-2.98L67.982,2.086C65.2-0.696,60.649-0.696,57.867,2.087
		L31.509,28.445c8.712,1.335,17.665,2.181,26.632,2.382L56.464,20.27z"/>
	<path fill="#FFFFFF" d="M123.764,57.87L96.361,30.466c-9.303,2.103-19.066,3.121-28.917,3.296l0.186,1.679l0.528,0.854
		c0,0,0.405,0.598-0.063,1.326l-0.27-0.401l0.456,4.103c7.236,0.113,15.66,5.381,17.675,14.91c0.662,3.125,1.045,3.545,1.885,4.571
		c-3.192,2.893-13.783,1.903-16.931,1.543c-1.18-0.137-5.184-0.485-4.964,2.014c0.621,4.352,5.806,1.755,9.275,1.315
		c2.567-0.327,5.727,0.111,7.782,1.61c5.116,3.731,4.199,9.487,3.666,10.984c-1.418-0.565-3.05,0.648-2.415,1.795
		c1.518,2.762,1.432,4.774,0.834,6.777c-0.662,2.215-9.811,14.698-10.326,15.661c-0.564,1.062-1.105,2.116-1.724,3.173
		c-1.206-0.924-4.05-2.698-7.967-4.117c-3.362-1.217-9.819-3.176-13.195-6.658c0,0,0.128-2.059,0.015-3.223
		c-0.908,0.486-1.678,1.505-2.275,2.294c-1.419-4.014-8.768-5.241-3.253-12.161c2.327-2.92,16.144-8.235,11.054-13.817
		c-1.528-1.675-3.568,2.068-4.246,3.169c-2.031,3.301-5.52,6.945-15.641,12.751c0.328-1.222-0.244-2.213-0.839-3.886
		c-0.918-2.572-0.951-4.955-0.145-6.843c-0.901,0.362-1.892,0.958-2.643,0.926c0.71-4.875-3.923-17.542,6.261-21.567
		c5.353-2.115,9.544-0.266,13.533,0.989c-0.829-2.418-2.91-4.162-4.812-5.418c-0.672-0.44-1.388-0.91-2.271-1.32
		c-0.848-0.393-2.973-0.947-2.259-2.372c0.947-1.886,3.434-0.662,4.476-0.055c2.261,1.315,4.059,3.482,5.767,6.679
		c0.259,0.472,0.69,1.46,1.042,1.625c0.394,0.177,1.324-0.239,1.709-0.682c0.471-0.529,0.71-1.756,0.807-2.522
		c0.202-1.539,0.179-3.154,1.122-4.352c0.297-0.375,0.625-0.711,0.968-1.03L58.598,33.71c-9.936-0.305-19.848-1.39-29.356-2.999
		L2.086,57.87c-2.782,2.782-2.782,7.335,0,10.117l55.781,55.782c2.782,2.781,7.333,2.781,10.116,0l55.782-55.783
		C126.546,65.205,126.546,60.652,123.764,57.87z"/>
	<path fill="#FFFFFF" d="M67.629,35.441l-0.186-1.679c-0.283,0.005-0.563,0.015-0.846,0.019L67.629,35.441z"/>
	<path fill="#FFFFFF" d="M65.226,33.791l0.283,0.825l0.749,6.815c0.659-0.082,1.334-0.119,2.023-0.107l-0.456-4.103l-2.304-3.429
		C65.424,33.792,65.325,33.79,65.226,33.791z"/>
	<path fill="#FFFFFF" d="M66.875,28.639l-0.183-1.649c0.008,0.568,0.015,1.043,0.02,1.372
		C66.776,28.451,66.821,28.546,66.875,28.639z"/>
	<path fill="#FFFFFF" d="M64.967,33.03l0.259,0.761c0.099-0.001,0.198,0.001,0.295,0l-0.514-0.764
		C64.994,33.029,64.98,33.029,64.967,33.03z"/>
	<path fill="#FFFFFF" d="M65.908,32.669l0.689,1.112c0.283-0.004,0.563-0.014,0.846-0.019L67.16,31.22
		C66.935,31.827,66.5,32.328,65.908,32.669z"/>
	<path fill="#FFFFFF" d="M76.684,47.599c-5.836,0.931-11.926,4.832-13.984,8.85c-1.079-0.207-2.273-0.361-3.424-0.652
		c-1.042-0.258-2.449-0.616-3.26-1.203c-0.254-0.179-0.304-0.636-0.73-0.561c0.117,0.413,0.344,0.535,0.479,0.913
		c-0.135,1.772-0.21,4.531-1.514,5.649c-1.803,1.552-3.724,0.518-5.068,0.158c-3.344-0.896-8.289-1.191-11.58,2.322
		c7.238-4.163,12.656-0.407,14.884-0.493c-6.348,4.827-12.77,8.655-13.041,16.79c0.744-7.211,8.139-11.806,10.803-13.869
		c-0.106,3.036-3.734,9.532-3.734,9.532c2.506-2.765,3.685-6.509,5.154-9.764c0.747-1.646,2.944-2.709,3.834-4.356
		c0.897-1.646,1.061-3.446,0.597-5.395c3.002,5.625,8.33,15.327,9.985,20.713c0.244,0.795-0.425,2.153-0.918,2.815
		c-0.853,1.147-2.017,1.978-2.932,2.988c-2.735,3.007-4.517,6.686-3.339,10.954c0.131-1.907-0.032-3.504,0.54-5.137
		c1.346-3.882,6.192-6.098,7.258-9.882c2.774,7.41,3.615,14.375,5.008,21.066c0.15-7.172-1.771-15.149-5.019-23.632
		c2.206,0.446,4.473,0.104,6.501,0.892c0.834,0.324,1.742,0.986,2.458,1.562c1.801,1.449,3.729,3.283,4.841,6.202
		c-0.183-2.108-1.447-4.002-2.673-5.479c-1.8-2.164-3.323-3.389-5.636-3.843c-1.114-0.222-2.3-0.075-3.507-0.297
		c-0.747-0.135-2.387-0.716-2.832-1.319c-0.427-0.568-0.689-1.552-1.039-2.347c-2.566-5.784-5.236-10.341-8.047-15.063
		c3.344,1.423,6.961,2.146,11.257,1.109c2.859,2.061,6.19,3.662,9.805,3.287c-3.098-0.33-5.872-1.507-8.316-3.544
		c4.938-1.408,8.721,0.189,12.618,1.474c-1.559-0.926-2.978-1.862-4.653-2.354c-5.191-1.517-8.765,0.575-13.382,0.792
		C65.695,52.54,71.276,49.898,76.684,47.599z"/>
	<path fill="#FFFFFF" d="M62.616,26.153c0.109-3.403,0.244-7.504,0.276-8.245c0.005-0.265,0.051-0.467,0.126-0.62
		c0.5-1.173,2.272-0.512,2.317,0.168c0,0.004,0,0.013,0,0.018c0.189,0.046,0.312,0.083,0.312,0.083l1.046,9.433
		c-0.051-3.1-0.148-9.004-0.188-9.609c-0.072-1.144-1.337-1.911-2.474-1.911c-1.1,0-2.242,0.737-2.311,2.386
		c-0.016,0.328-0.05,1.31-0.092,2.6l0.874,5.363L62.616,26.153z"/>
	<path fill="#FFFFFF" d="M67.296,30.798c0.14-0.721-0.022-1.483-0.421-2.159l0.238,2.165C67.175,30.801,67.235,30.8,67.296,30.798z"
		/>
	<path fill="#FFFFFF" d="M67.16,31.22c0.047-0.126,0.104-0.249,0.131-0.381c0.003-0.013,0.002-0.028,0.005-0.041
		c-0.061,0.002-0.121,0.003-0.183,0.005L67.16,31.22z"/>
	<path fill="#FFFFFF" d="M65.335,17.474c0.053,0.876,0.211,11.312,0.211,11.312c0.583,0.622,0.772,1.408,0.525,2.049
		c0.348-0.008,0.694-0.023,1.042-0.032l-0.238-2.165c-0.055-0.092-0.1-0.188-0.163-0.277c-0.005-0.329-0.012-0.804-0.02-1.372
		l-1.046-9.433C65.647,17.557,65.524,17.52,65.335,17.474z"/>
	<path fill="#FFFFFF" d="M65.007,33.027l-0.087-0.129l0.046,0.133C64.98,33.029,64.994,33.029,65.007,33.027z"/>
	<path fill="#FFFFFF" d="M66.072,30.835c-0.131,0.34-0.396,0.629-0.781,0.84l0.617,0.994c0.592-0.341,1.027-0.842,1.252-1.449
		l-0.046-0.417C66.766,30.812,66.42,30.828,66.072,30.835z"/>
	<path fill="#FFFFFF" d="M65.081,41.636c0.218-0.049,0.438-0.097,0.662-0.135l-1.375-7.711c-0.188,0-0.377,0-0.566,0L65.081,41.636z
		"/>
	<path fill="#FFFFFF" d="M63.801,33.79c0.189,0,0.379,0,0.566,0l-0.13-0.734c-0.197-0.016-0.389-0.05-0.571-0.1L63.801,33.79z"/>
	<path fill="#FFFFFF" d="M65.743,41.501c0.169-0.028,0.343-0.048,0.515-0.07l-0.749-6.815l-0.283-0.825
		c-0.285,0.001-0.571-0.001-0.858-0.001L65.743,41.501z"/>
	<path fill="#FFFFFF" d="M64.483,33.079c-0.085,0-0.164-0.017-0.246-0.023l0.13,0.734c0.287,0,0.573,0.002,0.858,0.001l-0.259-0.761
		C64.808,33.059,64.647,33.079,64.483,33.079z"/>
	<path fill="#FFFFFF" d="M65.081,41.636l0.246,1.51c0.431,2.666,0.634,3.913,0.654,4.568l0.21-3.689l-0.448-2.524
		C65.519,41.539,65.299,41.587,65.081,41.636z"/>
	<path fill="#FFFFFF" d="M66.191,44.025l0.122-2.104l-0.055-0.49c-0.172,0.022-0.346,0.042-0.515,0.07L66.191,44.025z"/>
	<path fill="#FFFFFF" d="M62.616,26.153l-0.114-0.334l0.104,0.639C62.609,26.358,62.612,26.255,62.616,26.153z"/>
	<path fill="#FFFFFF" d="M63.448,31.629l0.218,1.327c0.182,0.049,0.374,0.083,0.571,0.1l-0.216-1.212
		C63.82,31.794,63.627,31.719,63.448,31.629z"/>
	<path fill="#FFFFFF" d="M64.021,31.844l0.216,1.212c0.082,0.007,0.161,0.023,0.246,0.023c0.164,0,0.324-0.021,0.483-0.049
		l-0.046-0.133l-0.679-1.013C64.168,31.875,64.093,31.862,64.021,31.844z"/>
	<path fill="#FFFFFF" d="M62.614,26.508c0.003-0.107,0.007-0.217,0.011-0.327l-0.009-0.028c-0.003,0.103-0.007,0.205-0.01,0.305
		L62.614,26.508z"/>
	<path fill="#FFFFFF" d="M64.92,32.897l-0.341-0.998c-0.114,0.006-0.227,0-0.338-0.015L64.92,32.897z"/>
	<path fill="#FFFFFF" d="M57.687,20.534c-0.268-1.964,2.422-1.926,2.619-0.875c0,0,0.047,0.291,0.131,0.796
		c0.163,0.059,0.266,0.102,0.266,0.102l0.839,2.455c0.029-0.911,0.06-1.789,0.085-2.557l-0.162-0.986l-0.053-0.206
		c-0.239-0.669-0.889-1.167-1.781-1.367c-0.766-0.172-1.835-0.121-2.548,0.532c-0.498,0.455-0.72,1.101-0.619,1.841l1.677,10.558
		c0.396,0.008,0.79,0.013,1.187,0.02L57.687,20.534z"/>
	<path fill="#FFFFFF" d="M60.729,39.648l-0.967-0.2c-0.136-0.027-0.208-0.167-0.162-0.303l0.362-1.112l0.127,0.703h0.009
		c0.016,0.067,0.055,0.12,0.116,0.131l0.402,0.083l-0.829-5.215c-0.396-0.009-0.793-0.013-1.189-0.026l1.646,10.377
		c0.333-0.309,0.681-0.6,1.052-0.856L60.729,39.648z"/>
	<path fill="#FFFFFF" d="M59.328,30.847c-0.397-0.007-0.792-0.011-1.187-0.02l0.457,2.883c0.396,0.013,0.793,0.017,1.189,0.026
		L59.328,30.847z"/>
	<path fill="#FFFFFF" d="M65.981,47.714l-0.023,0.421C65.978,48.027,65.988,47.896,65.981,47.714z"/>
	<path fill="#FFFFFF" d="M60.841,47.844l0.097,0.178c0.063,0.118,0.655,1.155,1.875,1.429c0.627,0.14,1.622,0.117,2.828-0.839
		c0.157-0.135,0.263-0.233,0.312-0.454l-1.223-1.344c0.092,0.573,0.147,0.909,0.145,0.91c-1.939,1.526-2.903-0.262-2.903-0.262
		l-0.676-4.232c-0.372,0.256-0.72,0.547-1.052,0.856l0.565,3.561L60.841,47.844z"/>
	<path fill="#FFFFFF" d="M62.501,25.819l-0.874-5.363c-0.026,0.769-0.056,1.646-0.085,2.557L62.501,25.819z"/>
	<path fill="#FFFFFF" d="M61.542,23.013l-0.839-2.455c0,0-0.103-0.043-0.266-0.102c0.182,1.122,0.546,3.352,0.991,6.078
		C61.466,25.408,61.505,24.182,61.542,23.013z"/>
	<path fill="#FFFFFF" d="M62.612,33.79c0.278,1.702,0.554,3.402,0.815,5l0.005-0.017l0.477,0.101l-0.312,0.961
		c0.119,0.735,0.235,1.439,0.344,2.107c0.371-0.121,0.751-0.222,1.14-0.307l-1.28-7.846C63.405,33.788,63.008,33.794,62.612,33.79z"
		/>
	<path fill="#FFFFFF" d="M62.612,33.79c0.396,0.004,0.793-0.002,1.189,0l-0.135-0.834c-0.505-0.137-0.945-0.37-1.288-0.606
		C62.456,32.83,62.534,33.309,62.612,33.79z"/>
	<path fill="#FFFFFF" d="M65.081,41.636c-0.389,0.085-0.77,0.186-1.14,0.307c0.348,2.145,0.631,3.881,0.79,4.872l1.223,1.344
		c0-0.008,0.001-0.016,0.003-0.024l0.023-0.421c-0.02-0.655-0.223-1.902-0.654-4.568L65.081,41.636z"/>
	<path fill="#FFFFFF" d="M65.956,48.162l0.002-0.027c-0.002,0.008-0.003,0.016-0.003,0.024L65.956,48.162z"/>
	<path fill="#FFFFFF" d="M62.136,30.876c0.111,0,0.22-0.002,0.329-0.002c0.009-0.284,0.068-2.164,0.14-4.416l-0.104-0.639
		l-0.959-2.806c-0.038,1.169-0.077,2.395-0.114,3.521C61.65,27.887,61.889,29.357,62.136,30.876z"/>
	<path fill="#FFFFFF" d="M63.667,32.956l-0.218-1.327c-0.021-0.01-0.04-0.021-0.06-0.032l-0.158,0.035c0,0-0.021-0.059-0.046-0.154
		c-0.433-0.269-0.72-0.566-0.72-0.566s0-0.014,0.001-0.038c-0.109,0-0.218,0.002-0.329,0.002c0.08,0.489,0.16,0.979,0.243,1.474
		C62.722,32.586,63.162,32.819,63.667,32.956z"/>
	<path fill="#FFFFFF" d="M62.605,26.458c-0.072,2.252-0.131,4.132-0.14,4.416c0.011-0.281,0.074-2.137,0.148-4.366L62.605,26.458z"
		/>
	<path fill="#FFFFFF" d="M63.23,31.632l0.158-0.035c-0.072-0.039-0.14-0.078-0.205-0.119C63.209,31.574,63.23,31.632,63.23,31.632z"
		/>
	<path fill="#FFFFFF" d="M60.214,38.868c-0.062-0.011-0.101-0.063-0.116-0.131h-0.009l-0.127-0.703L59.6,39.146
		c-0.046,0.136,0.026,0.276,0.162,0.303l0.967,0.2l-0.113-0.698L60.214,38.868z"/>
	<path fill="#FFFFFF" d="M63.909,38.874l-0.477-0.101l-0.005,0.017c0.056,0.354,0.112,0.702,0.169,1.045L63.909,38.874z"/>
	<polygon fill="#FFFFFF" points="61.144,39.061 60.616,38.951 60.729,39.648 61.267,39.76 	"/>
	<path fill="#FFFFFF" d="M63.556,39.963l0.041-0.128c-0.057-0.344-0.113-0.691-0.169-1.045l-0.146,0.446
		c-0.044,0.141-0.167,0.236-0.269,0.212l-1.87-0.388l0.123,0.699l1.963,0.407C63.363,40.192,63.512,40.101,63.556,39.963z"/>
	<path fill="#FFFFFF" d="M62.892,17.908c0.01-0.248,0.055-0.452,0.126-0.62C62.943,17.441,62.897,17.643,62.892,17.908z"/>
	<path fill="#FFFFFF" d="M64.997,30.356c0.034-0.175-0.025-0.468-0.307-0.768l-0.01-0.01c-0.306,0.097-0.131,0.68,0.032,1.085
		C64.946,30.542,64.984,30.405,64.997,30.356z"/>
	<path fill="#FFFFFF" d="M64.972,29.595c-0.128-0.037-0.222-0.039-0.292-0.016l0.01,0.01c0.282,0.3,0.341,0.593,0.307,0.768
		c-0.013,0.048-0.051,0.186-0.285,0.307c0.028,0.07,0.057,0.133,0.08,0.188c0.117-0.001,0.232-0.001,0.349-0.003
		C65.603,30.358,65.492,29.75,64.972,29.595z"/>
	<path fill="#FFFFFF" d="M64.893,31.061c0.096-0.066,0.177-0.138,0.248-0.211c-0.116,0.002-0.232,0.002-0.349,0.003
		C64.849,30.978,64.893,31.061,64.893,31.061z"/>
	<path fill="#FFFFFF" d="M63.562,29.258L63.48,28.8c0,0-0.006-0.063-0.019-0.172l-0.837-2.447c-0.004,0.11-0.007,0.22-0.011,0.327
		l0.544,3.333C63.235,29.62,63.363,29.418,63.562,29.258z"/>
	<path fill="#FFFFFF" d="M63.448,31.629c0.179,0.09,0.372,0.166,0.573,0.215l-0.065-0.371l-0.515,0.112L63.448,31.629z"/>
	<path fill="#FFFFFF" d="M63.562,29.258c0.029-0.023,0.058-0.046,0.092-0.068l-0.192-0.562c0.012,0.109,0.019,0.172,0.019,0.172
		L63.562,29.258z"/>
	<path fill="#FFFFFF" d="M64.241,31.885l-0.28-0.414l-0.005,0.002l0.065,0.371C64.093,31.862,64.168,31.875,64.241,31.885z"/>
	<path fill="#FFFFFF" d="M63.777,30.466l-0.106-0.594c-0.006,0.194-0.012,0.368-0.017,0.515
		C63.694,30.413,63.734,30.438,63.777,30.466z"/>
	<path fill="#FFFFFF" d="M64.156,30.657l-0.468-1.363c-0.006,0.208-0.012,0.403-0.017,0.577l0.106,0.594
		C63.898,30.542,64.026,30.609,64.156,30.657z"/>
	<path fill="#FFFFFF" d="M63.654,30.386c0.005-0.147,0.011-0.32,0.017-0.515l-0.109-0.614c-0.2,0.16-0.328,0.362-0.404,0.583
		l0.166,1.025c0.176,0,0.35-0.002,0.523-0.004l-0.07-0.395C63.734,30.438,63.694,30.413,63.654,30.386z"/>
	<path fill="#FFFFFF" d="M63.441,31.585l0.515-0.112l-0.109-0.612c-0.174,0.002-0.348,0.004-0.523,0.004L63.441,31.585z"/>
	<path fill="#FFFFFF" d="M63.777,30.466l0.07,0.395c0.126-0.001,0.251-0.002,0.375-0.003l-0.066-0.2
		C64.026,30.609,63.898,30.542,63.777,30.466z"/>
	<path fill="#FFFFFF" d="M63.671,29.872c0.005-0.174,0.011-0.37,0.017-0.577l-0.034-0.105c-0.034,0.022-0.063,0.045-0.092,0.068
		L63.671,29.872z"/>
	<path fill="#FFFFFF" d="M63.847,30.861l0.109,0.612l0.005-0.002l0.28,0.414c0.111,0.015,0.224,0.021,0.338,0.015l-0.356-1.042
		C64.098,30.859,63.974,30.859,63.847,30.861z"/>
	<path fill="#FFFFFF" d="M63.158,29.84l-0.544-3.333c-0.075,2.229-0.138,4.085-0.148,4.366c0.202-0.001,0.401-0.004,0.603-0.006
		C63.033,30.548,63.039,30.177,63.158,29.84z"/>
	<path fill="#FFFFFF" d="M63.184,31.479c-0.038-0.136-0.089-0.355-0.116-0.61c-0.202,0.001-0.401,0.005-0.603,0.006
		c-0.001,0.024-0.001,0.038-0.001,0.038S62.75,31.21,63.184,31.479z"/>
	<path fill="#FFFFFF" d="M63.388,31.597c0.021,0.01,0.04,0.021,0.06,0.032l-0.007-0.044L63.388,31.597z"/>
	<path fill="#FFFFFF" d="M63.158,29.84c-0.119,0.337-0.125,0.708-0.09,1.028c0.085,0,0.17-0.001,0.256-0.003L63.158,29.84z"/>
	<path fill="#FFFFFF" d="M63.324,30.865c-0.085,0.001-0.17,0.003-0.256,0.003c0.027,0.255,0.078,0.474,0.116,0.61
		c0.065,0.041,0.133,0.08,0.205,0.119l0.053-0.012L63.324,30.865z"/>
</g>
</svg>
