<?xml version="1.0" encoding="utf-8"?>
<!-- Generator: Adobe Illustrator 16.0.4, SVG Export Plug-In . SVG Version: 6.00 Build 0)  -->
<!DOCTYPE svg PUBLIC "-//W3C//DTD SVG 1.1//EN" "http://www.w3.org/Graphics/SVG/1.1/DTD/svg11.dtd">
<svg version="1.1" id="Layer_1" xmlns="http://www.w3.org/2000/svg" xmlns:xlink="http://www.w3.org/1999/xlink" x="0px" y="0px"
	 width="364.593px" height="199.997px" viewBox="0 0 364.593 199.997" enable-background="new 0 0 364.593 199.997"
	 xml:space="preserve">
<g>
	<path fill="#FFFFFF" d="M100.799,115.998c-10.6,26.8-38.8,37.199-57,37.199C14.2,153.197,0,139.998,0,103.998
		C0,67.799,17.4,0,69.799,0c18.8,0,33.4,7.4,33.4,26.799c0,10.6-3.8,18.4-14,18.4c-3.2,0-7.6-0.8-11.4-5.2
		c4.8-2.4,9.2-10.8,9.2-18.399c0-6.4-3.2-12.2-12.2-12.2c-22,0-41.599,52.599-41.599,93.398c0,18.4,4.8,31.2,24,31.2
		c15.6,0,29.8-7.6,39-20L100.799,115.998z"/>
	<path fill="#FFFFFF" d="M191.598,49.999l-14.4,67.999c-0.6,2.6-0.8,4.6-0.8,6.4c0,5.6,2.6,8.6,8.2,8.6c7.8,0,13.2-8.8,16.2-18.8
		h8.4c-11.4,32.6-29.399,37-40.199,37c-11.2,0-18.4-6.4-19.6-18.4c-6.2,9.2-15.6,18.4-29.8,18.4c-13.6,0-26.6-8.4-26.6-32.2
		c0-27,16.6-69.999,51.399-69.999c11.4,0,16.2,4.4,16.2,10.2v1.4l2.2-10.6H191.598z M122.599,116.198c0,15.399,6.4,15.6,10,15.6
		c5.8,0,14.2-6,16.6-17.6l9.6-45.199c0-2.4-1.8-7.6-8.2-7.6C133.599,61.399,122.599,97.398,122.599,116.198z"/>
	<path fill="#FFFFFF" d="M243.195,49.999l-2.6,12.4c6.999-6,14.6-12.4,24.199-12.4c9,0,13.8,7.4,13.8,15c0,7-4.6,14.6-14.399,14.6
		c-11.2,0-5.601-13.2-11.601-13.2s-9.6,3-14.6,7.6l-16,75.999h-28.8l21.2-99.999H243.195z"/>
	<path fill="#FFFFFF" d="M319.993,42.599l-3.199,15c5.8-5,13.399-8.6,23.399-8.6c13.6,0,24.399,7.8,24.399,31.6
		c0,27-10.399,70.599-49.199,70.599c-10,0-14.8-3.4-17-7.2l-10.399,48.799l-30.2,7.2l33.4-157.397H319.993z M337.193,79.999
		c0-15.4-6.4-16.6-10-16.6c-4.4,0-10,3.4-13.8,9.8l-11.8,55.999c0.8,2.2,3,4.6,7.6,4.6
		C330.193,133.798,337.193,98.798,337.193,79.999z"/>
</g>
</svg>
